<?xml version="1.0" encoding="UTF-8"?>
<svg id="Layer_2" data-name="Layer 2" xmlns="http://www.w3.org/2000/svg" viewBox="0 0 229.79 231.33">
  <defs>
    <style>
      .cls-1 {
        fill: #fff;
      }

      .cls-2 {
        fill: #121886;
      }

      .cls-3 {
        stroke: #09c;
        stroke-miterlimit: 10;
        stroke-width: 2px;
      }

      .cls-3, .cls-4 {
        fill: none;
      }

      .cls-5 {
        fill: #09c;
      }

      .cls-6 {
        fill: #01a3c4;
      }

      .cls-7 {
        fill: #fffead;
      }

      .cls-8 {
        fill: #231f20;
      }
    </style>
  </defs>
  <g id="Layer_1-2" data-name="Layer 1">
    <g>
      <g>
        <g>
          <path class="cls-2" d="m226.77,117c-3.45-.54-6.87-1.35-10.32-1.93-1.33-.23-2.05-.65-2.12-2.28-.12-2.82-.46-5.64-.78-8.45-.15-1.38.64-1.85,1.61-2.3,3.2-1.5,6.36-3.09,9.58-4.53,1.48-.66,2.02-1.54,1.6-3.26-1.01-4.12-1.94-8.26-2.8-12.41-.27-1.29-.75-1.76-2.01-1.67-3.4.24-6.81.28-10.21.53-2.14.16-3.91.15-4.56-2.71-.39-1.69-1.29-3.27-2.1-4.81-.62-1.16-.38-1.89.49-2.74,2.7-2.64,5.31-5.39,8-8.04.91-.89,1.03-1.62.27-2.71-2.61-3.68-5.19-7.39-7.69-11.15-.79-1.18-1.51-1.33-2.71-.71-2.99,1.56-6.07,2.91-9.05,4.5-1.28.68-2.08.51-3-.62-1.47-1.81-3-3.59-4.67-5.18-1.81-1.72-2-3.22-.45-5.33,1.73-2.37,3.08-5.06,4.67-7.55.7-1.1.71-1.79-.4-2.62-1.76-1.33-3.38-2.86-5.09-4.28-2.36-1.96-4.66-5.28-7.13-5.44-2.65-.17-5.09,3.26-7.27,5.51-2.86,2.94-5.52,3.68-8.77.85-.88-.76-2.06-1.16-3.14-1.61-1.3-.54-1.71-1.25-1.32-2.83.87-3.42,1.4-6.94,2.23-10.37.39-1.59.13-2.41-1.4-2.98-4.24-1.59-8.44-3.28-12.61-5.06-1.41-.6-2.04-.21-2.72,1.15-1.69,3.36-3.63,6.58-5.32,9.94-.78,1.55-1.52,2.2-3.29,1.69-2.23-.65-4.57-1.01-6.89-1.18-1.63-.12-2.14-.88-2.28-2.44-.3-3.53-.78-7.04-1.01-10.58-.12-1.82-.79-2.42-2.46-2.39-4.58.09-9.16.05-13.74.02-1.37-.01-2.09.35-2.2,2.06-.22,3.53-.81,7.04-1.03,10.57-.11,1.78-.79,2.49-2.38,2.68-2.64.32-5.29.66-7.88,1.27-1.54.36-2.24-.14-2.97-1.49-1.78-3.31-3.76-6.49-5.54-9.8-.72-1.34-1.49-1.66-2.83-1.17-3.93,1.44-7.88,2.84-11.85,4.16-1.31.43-1.68,1.12-1.42,2.54.69,3.74,1.22,7.51,1.91,11.25.27,1.45-.05,2.26-1.36,2.9-2.57,1.25-5.1,2.63-7.55,4.13-1.21.74-1.94.42-2.8-.52-2.22-2.4-4.58-4.66-6.72-7.13-1.26-1.46-2.21-1.31-3.57-.21-3.18,2.58-6.41,5.08-9.71,7.49-1.27.93-1.37,1.69-.5,2.99,1.93,2.89,3.7,5.9,5.59,8.82.59.92.81,1.45-.13,2.4-2.53,2.56-4.94,5.26-7.29,8.02-.89,1.04-1.61,1.24-2.77.58-2.79-1.57-5.68-2.97-8.46-4.57-1.28-.74-2.05-.56-2.93.66-2.27,3.17-4.6,6.3-7.01,9.36-.97,1.22-.92,1.98.2,3.05,2.61,2.48,5.06,5.15,7.66,7.64,1.06,1.02,1.16,1.87.48,3.2-1.22,2.42-2.33,4.91-3.31,7.45-.57,1.5-1.33,1.98-2.84,1.8-3.71-.43-7.46-.56-11.17-1.04-1.53-.2-1.86.47-2.12,1.77-.71,3.56-1.4,7.12-2.28,10.63-.49,1.94.1,2.97,1.69,3.75,2.94,1.46,5.81,3.1,8.78,4.49,1.45.68,1.97,1.57,1.76,3.24-.38,2.98-.71,5.97-.84,8.97-.06,1.5-.58,1.96-1.87,2.12-3.3.41-6.59.97-9.88,1.44-1.09.16-1.9.43-1.78,1.94.34,4.42.58,8.84.85,13.26.08,1.29.44,2,1.89,2.16,3.49.39,6.98.36,10.46.4,1.4.02,2.05.42,2.35,1.98.55,2.86,1.29,5.69,2.11,8.49.39,1.33.2,2.1-.92,2.87-2.8,1.92-5.49,4.01-8.28,5.95-1.19.83-1.54,1.61-.69,3.01,1.26,2.09,2.62,4.18,3.43,6.48,1.77,5.04,4.8,6.63,9.56,4.92,4.54-1.63,7.99-.35,9.96,4.59.32.8.88,1.52,1.44,2.16.88.99.69,1.76-.06,2.74-2.11,2.75-4.09,5.61-6.19,8.35-.88,1.15-1.08,1.95.12,3.08,2.74,2.59,5.4,5.29,7.98,8.06,1,1.07,1.72.97,2.73.14,2.44-2,5-3.84,7.4-5.89,1.08-.93,1.84-.82,2.79.07,2.81,2.64,5.81,5.04,8.95,7.22,1.12.78,1.3,1.59.76,2.89-1.22,2.92-2.21,5.94-3.49,8.83-.77,1.73-.64,2.6,1.12,3.43,3.64,1.73,7.2,3.67,10.74,5.66,1.36.76,2.21.6,3.17-.68,2.03-2.69,4.23-5.25,6.3-7.92.74-.95,1.41-1.18,2.56-.71,2.56,1.04,5.19,1.91,7.81,2.76,1.09.35,1.61.86,1.64,2.2.07,3.63.32,7.26.47,10.89.04,1.05.12,1.96,1.39,2.07,4.14.34,8.28.75,12.42,1.06,1.5.11,2.44-.65,2.86-2.33.63-2.48,1.57-4.87,2.19-7.35.5-2.03,1.6-2.6,3.45-2.48,2.4.17,4.83.26,7.23.07,1.54-.12,2.26.48,2.85,1.84,1.47,3.38,3.11,6.68,4.52,10.08.55,1.33,1.25,1.64,2.5,1.44,4.03-.64,8.06-1.24,12.1-1.78,1.18-.16,1.51-.82,1.52-1.96.02-2.13.12-4.26.18-6.38q.19-6.67,6.09-8.75c.95-.34,1.94-.58,2.82-1.05,1.57-.84,2.63-.29,3.68,1.02,2.23,2.75,4.57,5.4,6.81,8.14.77.93,1.43,1.21,2.55.53,3.62-2.19,7.26-4.33,10.98-6.33,1.46-.78,1.38-1.62.83-2.95-1.28-3.08-2.4-6.24-3.71-9.31-.6-1.41-.35-2.17.87-3.03,2.42-1.71,4.77-3.56,7.03-5.52,1.26-1.09,2.15-1.09,3.43-.02,2.61,2.19,5.39,4.16,8.04,6.3,1.11.9,1.86,1.05,2.9-.2,2.94-3.5,6-6.88,9.05-10.27.86-.95.87-1.7.04-2.71-1.65-2-3.21-4.08-4.77-6.15q-2.91-3.86-.15-7.99c1.2-1.8,2.09-4.45,3.71-5.14,1.78-.75,4.06.99,6.13,1.6,2.48.73,5.23,2.92,7.31,2,2.23-.98,2.54-4.71,3.66-7.24,1.06-2.39,3.17-4.93,2.68-7.25-.53-2.49-3.74-3.49-5.72-5.21-1.74-1.5-4.27-2.58-5.09-4.51-.83-1.96.89-4.5,1.34-6.83.12-.61.3-1.2.38-1.82.21-1.6.99-2.33,2.54-2.11,2.31.33,4.63.47,6.81.34,1.74,0,3.32,0,4.9,0,.93,0,1.58-.25,1.64-1.47.24-4.87.52-9.73.82-14.6.1-1.6-.4-2.41-2.01-2.66Z"/>
          <path class="cls-5" d="m126.74,231.33c-1.33,0-2.22-.67-2.81-2.11-.81-1.95-1.71-3.9-2.58-5.79-.66-1.42-1.31-2.84-1.94-4.28-.47-1.07-.85-1.33-1.86-1.25-2.61.2-5.19.08-7.38-.07-1.5-.11-2.06.3-2.41,1.72-.32,1.3-.73,2.58-1.13,3.81-.37,1.16-.76,2.35-1.06,3.54-.73,2.87-2.75,3.16-3.9,3.08-2.59-.19-5.18-.42-7.77-.65-1.55-.14-3.11-.28-4.66-.41-2.19-.18-2.27-2.1-2.31-3.02-.05-1.3-.12-2.61-.19-3.91-.12-2.29-.24-4.66-.28-7-.02-.85-.21-1.03-.95-1.27-2.68-.87-5.31-1.75-7.88-2.79-.7-.28-.91-.22-1.39.4-.9,1.16-1.83,2.3-2.75,3.44-1.18,1.45-2.39,2.95-3.54,4.46-1.25,1.65-2.66,1.95-4.46.95-3.17-1.78-6.91-3.83-10.68-5.62-2.69-1.28-2.36-3.04-1.6-4.74.71-1.59,1.34-3.26,1.95-4.88.49-1.29.99-2.62,1.53-3.92.4-.94.26-1.22-.41-1.68-3.28-2.27-6.33-4.73-9.07-7.31-.63-.59-.81-.59-1.45-.04-1.42,1.22-2.91,2.37-4.35,3.49-1.03.8-2.06,1.6-3.06,2.42-.94.77-2.4,1.58-4.1-.23-2.67-2.86-5.35-5.56-7.94-8.01-1.84-1.74-1.15-3.21-.22-4.42,1.04-1.36,2.06-2.75,3.07-4.14,1.03-1.41,2.06-2.83,3.12-4.21.63-.81.52-1,.11-1.47-.5-.57-1.22-1.44-1.63-2.46-1.69-4.26-4.46-5.54-8.69-4.01-2.58.93-4.72.97-6.52.11-1.89-.9-3.31-2.75-4.33-5.64-.67-1.91-1.79-3.74-2.86-5.51l-.48-.78c-1.4-2.31-.11-3.59.98-4.35,1.29-.9,2.57-1.83,3.84-2.77,1.45-1.06,2.94-2.15,4.45-3.19.68-.47.83-.74.53-1.76-.97-3.33-1.65-6.05-2.13-8.58-.2-1.06-.41-1.16-1.38-1.17l-1.53-.02c-2.95-.03-6.01-.06-9.03-.4-2.31-.26-2.7-1.79-2.78-3.09l-.16-2.59c-.21-3.5-.43-7.11-.7-10.66-.2-2.6,1.86-2.89,2.64-3,1.22-.17,2.45-.36,3.67-.55,2.04-.31,4.15-.63,6.23-.89.8-.1.96-.15,1-1.17.13-3.22.5-6.39.85-9.06.16-1.22-.1-1.7-1.19-2.21-1.73-.81-3.44-1.71-5.09-2.58-1.23-.65-2.46-1.3-3.71-1.91-2.1-1.04-2.8-2.59-2.22-4.9.82-3.21,1.47-6.54,2.11-9.76l.16-.81c.19-.94.58-2.91,3.23-2.57,1.98.26,4.02.42,5.98.57,1.69.13,3.44.27,5.17.47.98.11,1.35-.03,1.79-1.17.97-2.52,2.09-5.06,3.35-7.54.49-.96.43-1.34-.28-2.03-1.27-1.22-2.51-2.49-3.72-3.71-1.28-1.3-2.6-2.65-3.94-3.92-1.49-1.42-1.58-2.77-.3-4.39,2.26-2.86,4.54-5.91,6.99-9.32,1.17-1.64,2.52-1.94,4.24-.94,1.48.86,3.03,1.67,4.53,2.46,1.31.69,2.63,1.38,3.92,2.11.66.37.88.39,1.52-.36,2.75-3.23,5.09-5.79,7.34-8.07q.46-.46,0-1.15c-.84-1.3-1.66-2.62-2.48-3.93-1-1.61-2.04-3.28-3.1-4.88-1.18-1.77-.95-3.12.74-4.36,3.25-2.38,6.5-4.89,9.67-7.46,1.28-1.04,3-1.94,4.96.33,1.28,1.48,2.67,2.91,4.02,4.3.9.93,1.8,1.86,2.68,2.81.69.75.91.73,1.54.34,2.39-1.46,4.96-2.87,7.63-4.17.81-.4,1.03-.7.82-1.82-.36-1.92-.68-3.88-.98-5.77-.3-1.83-.59-3.66-.93-5.48-.35-1.91.31-3.08,2.09-3.67,3.63-1.21,7.5-2.56,11.82-4.15,1.81-.67,3.1-.15,4.05,1.63.89,1.66,1.85,3.32,2.78,4.92.92,1.59,1.87,3.23,2.76,4.88.6,1.12.92,1.21,1.86.99,2.71-.64,5.52-.99,7.99-1.29,1.05-.13,1.42-.4,1.51-1.75.11-1.78.32-3.57.52-5.3.2-1.73.4-3.52.51-5.27.17-2.68,1.83-2.99,3.2-3h.26c4.41.04,8.97.07,13.45-.02,2.29-.04,3.33.98,3.48,3.32.13,2.06.36,4.16.57,6.19.16,1.46.31,2.91.43,4.37.11,1.26.39,1.45,1.35,1.52,2.57.19,4.96.6,7.09,1.21,1.07.31,1.43.2,2.12-1.18.87-1.73,1.81-3.43,2.72-5.08.87-1.58,1.78-3.22,2.6-4.86.64-1.27,1.68-2.61,4-1.62,4.19,1.78,8.42,3.48,12.57,5.04,2.44.92,2.39,2.61,2.02,4.15-.39,1.6-.72,3.25-1.03,4.85-.36,1.82-.74,3.69-1.2,5.53-.3,1.17-.04,1.34.73,1.66l.48.19c.97.39,2.06.83,2.94,1.59,2.58,2.25,4.66,2.03,7.4-.8.41-.42.83-.88,1.25-1.36,1.95-2.17,4.17-4.6,6.8-4.45,2.11.14,3.92,1.97,5.66,3.73.7.71,1.37,1.38,2.04,1.94.63.53,1.25,1.07,1.87,1.61,1.03.9,2.09,1.82,3.18,2.64,1.91,1.44,1.28,2.94.64,3.95-.6.94-1.18,1.93-1.74,2.9-.92,1.58-1.87,3.21-2.97,4.71-1.22,1.67-1.14,2.61.34,4.02,1.86,1.77,3.52,3.75,4.75,5.27.62.77.9.82,1.75.37,1.6-.85,3.26-1.65,4.86-2.42,1.39-.67,2.82-1.36,4.2-2.08,1.68-.87,2.95-.54,4,1.04,2.23,3.34,4.67,6.88,7.68,11.13,1.03,1.46.91,2.73-.38,4-1.33,1.31-2.65,2.65-3.96,3.98-1.34,1.36-2.68,2.72-4.04,4.06-.62.6-.67.87-.3,1.55l.23.43c.78,1.46,1.58,2.96,1.96,4.62.45,1.97,1.32,2.09,3.51,1.93,1.78-.13,3.58-.21,5.32-.28,1.61-.07,3.27-.14,4.89-.25,2.21-.16,2.81,1.23,3.06,2.46.86,4.14,1.79,8.3,2.79,12.38.52,2.12-.17,3.52-2.17,4.41-1.97.88-3.96,1.84-5.88,2.77-1.22.59-2.45,1.18-3.68,1.76-.96.45-1.11.64-1.04,1.29l.12,1.05c.27,2.44.56,4.96.66,7.46.04,1.03.27,1.17,1.29,1.34,1.59.27,3.2.59,4.75.9,1.82.36,3.71.74,5.56,1.03,2.05.32,2.99,1.54,2.85,3.71-.33,5.26-.59,10.03-.82,14.59-.06,1.1-.56,2.42-2.64,2.42h-3.35s-1.55,0-1.55,0c-2.07.12-4.43,0-6.95-.35-.45-.06-.77-.02-.96.12-.28.21-.4.73-.45,1.13-.05.41-.15.81-.24,1.21-.05.22-.11.44-.15.67-.17.86-.48,1.72-.78,2.55-.52,1.42-1.01,2.76-.61,3.7.44,1.04,1.63,1.85,2.89,2.71.65.45,1.33.91,1.93,1.43.58.5,1.28.94,2.02,1.4,1.68,1.05,3.58,2.24,4.03,4.35.43,2.03-.66,4-1.72,5.9-.38.68-.74,1.33-1.02,1.96-.31.7-.56,1.52-.82,2.38-.67,2.21-1.37,4.5-3.35,5.37-1.82.8-3.78-.11-5.68-1-.82-.38-1.59-.74-2.32-.96-.72-.21-1.44-.54-2.13-.85-1.24-.56-2.52-1.14-3.33-.79-.81.34-1.51,1.65-2.2,2.92-.34.63-.69,1.28-1.07,1.86-1.22,1.83-1.89,2.83-1.88,3.52.01.68.72,1.62,2,3.31l.26.35c1.44,1.92,2.94,3.9,4.48,5.77,1.14,1.38,1.12,2.69-.07,4.01l-.53.59c-2.82,3.14-5.74,6.38-8.5,9.66-1.69,2.01-3.19,1.23-4.3.33-1.16-.94-2.34-1.84-3.52-2.74-1.5-1.15-3.06-2.33-4.54-3.58-.9-.76-1.24-.76-2.13.01-2.3,2-4.7,3.87-7.11,5.58-.85.6-.93.87-.52,1.83.71,1.67,1.38,3.39,2.02,5.06.55,1.43,1.1,2.85,1.69,4.26.39.93,1.2,2.88-1.28,4.21-4,2.15-7.94,4.5-10.93,6.3-1.93,1.17-3.12.13-3.84-.75-1.02-1.24-2.05-2.46-3.09-3.68-1.23-1.45-2.51-2.95-3.73-4.46-1-1.23-1.58-1.23-2.43-.77-.71.38-1.46.62-2.18.85-.26.08-.53.17-.79.26-2.74.97-4.11,1.46-4.69,2.28-.59.85-.64,2.52-.73,5.55-.02.68-.04,1.36-.07,2.04-.05,1.44-.1,2.89-.12,4.33,0,.65-.03,2.62-2.39,2.94-3.93.53-7.99,1.12-12.08,1.78-.27.04-.52.07-.76.07Zm-8.91-15.44c2.05,0,2.88,1.23,3.41,2.46.62,1.42,1.27,2.83,1.92,4.24.88,1.91,1.79,3.88,2.61,5.86.37.9.62.96,1.42.84,4.1-.65,8.18-1.25,12.13-1.78.47-.06.65-.09.66-.98.02-1.46.07-2.92.12-4.38.02-.67.05-1.35.07-2.02.21-7.08.46-7.44,6.75-9.66.28-.1.56-.19.84-.28.66-.21,1.29-.42,1.84-.71,2.72-1.47,4.39.59,4.94,1.27,1.21,1.49,2.47,2.99,3.7,4.43,1.04,1.23,2.08,2.46,3.11,3.7.57.69.71.64,1.26.31,3.01-1.82,6.98-4.18,11.02-6.35.77-.42.85-.55.38-1.68-.59-1.43-1.15-2.87-1.71-4.31-.64-1.65-1.3-3.35-2-5-.78-1.82-.42-3.09,1.21-4.24,2.36-1.67,4.7-3.5,6.96-5.46,1.62-1.41,3.08-1.41,4.73-.03,1.45,1.22,2.98,2.39,4.46,3.52,1.2.91,2.39,1.83,3.56,2.77.81.66.91.65,1.51-.06,2.78-3.31,5.71-6.56,8.55-9.71l.53-.59c.52-.58.53-.78.01-1.4-1.57-1.9-3.08-3.9-4.53-5.84l-.26-.35c-3.15-4.18-3.16-4.69-.19-9.15.33-.5.65-1.08.98-1.7.85-1.57,1.72-3.19,3.18-3.81,1.62-.69,3.38.11,4.93.81.66.3,1.28.58,1.87.75.88.26,1.75.67,2.6,1.07,1.56.73,3.03,1.42,4.02.98,1.14-.5,1.7-2.34,2.24-4.12.27-.88.55-1.79.91-2.61.32-.71.71-1.43,1.1-2.12.88-1.58,1.79-3.22,1.51-4.52-.27-1.28-1.66-2.15-3.13-3.08-.77-.48-1.58-.99-2.27-1.58-.52-.45-1.12-.86-1.76-1.3-1.44-.99-2.93-2.01-3.59-3.58-.71-1.67-.06-3.45.58-5.17.29-.79.56-1.53.7-2.24.05-.25.11-.5.17-.75.08-.33.16-.67.21-1,.15-1.13.56-1.95,1.22-2.46.63-.48,1.45-.65,2.45-.51,2.4.34,4.62.45,6.61.33h1.61s3.35,0,3.35,0c.64,0,.62-.03.64-.52.23-4.57.5-9.35.82-14.61.08-1.22-.21-1.46-1.17-1.61-1.89-.3-3.8-.68-5.64-1.05-1.54-.31-3.13-.62-4.69-.89-1.4-.24-2.85-.81-2.95-3.23-.1-2.44-.38-4.92-.65-7.32l-.12-1.06c-.24-2.19,1.33-2.92,2.18-3.32,1.22-.57,2.44-1.16,3.66-1.75,1.94-.93,3.94-1.9,5.93-2.79,1.11-.5,1.33-.93,1.04-2.11-1-4.1-1.95-8.29-2.81-12.45-.19-.93-.33-.92-.96-.87-1.65.12-3.33.19-4.95.25-1.73.07-3.51.15-5.25.28-1.88.14-4.73.35-5.61-3.48-.32-1.4-1.06-2.79-1.78-4.13l-.23-.44c-1.01-1.9-.17-3.09.67-3.92,1.35-1.33,2.68-2.68,4.01-4.03,1.32-1.34,2.64-2.69,3.99-4,.59-.58.61-.76.15-1.41-3.02-4.27-5.47-7.82-7.71-11.18-.51-.76-.68-.76-1.41-.38-1.41.73-2.86,1.43-4.26,2.11-1.58.76-3.22,1.55-4.79,2.39-1.71.91-3.02.64-4.25-.88-1.2-1.48-2.8-3.39-4.58-5.08-2.22-2.11-2.39-4.16-.57-6.65,1.04-1.42,1.96-3,2.85-4.54.57-.98,1.16-1.99,1.78-2.96.49-.76.44-.83-.15-1.28-1.14-.86-2.24-1.81-3.29-2.73-.61-.53-1.22-1.06-1.84-1.58-.74-.62-1.48-1.36-2.18-2.07-1.48-1.5-3.02-3.06-4.37-3.14-1.68-.12-3.53,1.96-5.18,3.79-.44.49-.88.98-1.31,1.41-2.2,2.27-5.65,4.83-10.15.91-.62-.54-1.47-.88-2.36-1.24l-.5-.2c-1.83-.75-2.41-1.98-1.9-4,.45-1.78.82-3.64,1.18-5.43.32-1.62.66-3.29,1.05-4.93.31-1.27.14-1.47-.78-1.81-4.18-1.57-8.44-3.28-12.65-5.08-.76-.32-.9-.38-1.44.68-.84,1.67-1.75,3.32-2.63,4.92-.9,1.63-1.83,3.33-2.68,5.02-.79,1.59-1.88,2.95-4.46,2.2-2-.58-4.25-.96-6.68-1.14-2.6-.19-3.07-1.89-3.2-3.35-.12-1.44-.28-2.89-.43-4.33-.22-2.05-.44-4.17-.58-6.27-.09-1.34-.34-1.48-1.44-1.45-4.51.09-9.08.05-13.5.02h-.26c-.92-.01-1.12.03-1.19,1.12-.11,1.81-.32,3.62-.52,5.38-.2,1.71-.4,3.47-.51,5.2-.14,2.24-1.15,3.35-3.26,3.61-2.42.3-5.17.64-7.78,1.25-2.35.56-3.38-.69-4.08-1.99-.87-1.62-1.82-3.25-2.73-4.83-.94-1.62-1.91-3.29-2.81-4.98-.51-.95-.78-1-1.6-.7-4.34,1.6-8.23,2.96-11.88,4.17-.77.26-.93.42-.75,1.41.34,1.83.64,3.68.94,5.52.31,1.88.62,3.83.98,5.73.36,1.93-.23,3.16-1.91,3.98-2.62,1.28-5.13,2.65-7.46,4.08-1.93,1.18-3.18.25-4.06-.69-.87-.94-1.76-1.86-2.65-2.77-1.37-1.41-2.78-2.86-4.09-4.39-.81-.94-1.12-.95-2.18-.09-3.19,2.59-6.47,5.12-9.75,7.52-.79.58-.86.72-.26,1.63,1.08,1.62,2.13,3.3,3.14,4.93.81,1.31,1.63,2.61,2.46,3.9.67,1.03,1.21,2.17-.26,3.65-2.22,2.24-4.52,4.77-7.24,7.96-1.23,1.44-2.47,1.68-4.03.81-1.28-.72-2.57-1.4-3.87-2.08-1.51-.8-3.08-1.62-4.6-2.5-.83-.48-1.04-.43-1.61.38-2.46,3.44-4.76,6.51-7.04,9.4-.65.82-.64,1,.1,1.7,1.36,1.29,2.7,2.66,3.99,3.97,1.2,1.22,2.43,2.48,3.68,3.67,1.37,1.31,1.57,2.62.68,4.38-1.23,2.42-2.33,4.9-3.27,7.35-.73,1.91-1.94,2.66-3.88,2.44-1.69-.19-3.42-.33-5.09-.46-1.99-.16-4.06-.32-6.09-.58-.75-.1-.79-.1-1.01.97l-.16.81c-.64,3.25-1.31,6.6-2.14,9.87-.36,1.4-.09,1.99,1.17,2.61,1.26.62,2.5,1.28,3.75,1.94,1.63.86,3.32,1.75,5.01,2.54,1.87.88,2.59,2.2,2.32,4.28-.34,2.63-.7,5.74-.83,8.89-.08,1.92-.9,2.84-2.75,3.07-2.06.26-4.16.58-6.18.89-1.23.19-2.46.37-3.69.55-.98.14-.97.22-.92.87.27,3.56.49,7.18.7,10.69l.16,2.59c.06,1.03.23,1.14,1,1.23,2.93.33,5.93.35,8.83.38l1.53.02c1.95.02,2.94.86,3.31,2.79.47,2.46,1.13,5.13,2.08,8.4.52,1.79.13,2.98-1.32,3.97-1.48,1.02-2.96,2.1-4.4,3.15-1.29.94-2.57,1.88-3.88,2.79-.87.61-.92.83-.41,1.68l.47.78c1.13,1.86,2.3,3.78,3.04,5.89.83,2.37,1.91,3.84,3.3,4.5,1.29.62,2.92.55,4.98-.19,5.25-1.89,9.13-.1,11.23,5.16.29.73.86,1.41,1.26,1.87,1.47,1.66.7,3.08-.02,4.01-1.05,1.37-2.07,2.77-3.09,4.17-1.02,1.4-2.04,2.81-3.1,4.18-.72.94-.66,1.11,0,1.75,2.62,2.48,5.32,5.21,8.03,8.1.57.61.69.61,1.37.05,1.02-.83,2.06-1.64,3.1-2.45,1.42-1.1,2.89-2.24,4.27-3.43,1.41-1.21,2.76-1.18,4.12.1,2.67,2.51,5.65,4.91,8.84,7.13,1.49,1.04,1.85,2.34,1.11,4.1-.53,1.26-1.03,2.58-1.51,3.85-.62,1.65-1.26,3.35-2,4.99-.62,1.4-.49,1.59.63,2.12,3.82,1.82,7.6,3.9,10.8,5.69.93.52,1.23.46,1.88-.41,1.16-1.54,2.39-3.05,3.58-4.52.92-1.13,1.83-2.26,2.73-3.41,1.04-1.33,2.18-1.65,3.72-1.03,2.51,1.02,5.1,1.88,7.75,2.74,1.6.52,2.3,1.46,2.33,3.13.04,2.31.16,4.66.28,6.93.07,1.31.14,2.62.19,3.93.04,1.08.11,1.08.48,1.11,1.56.13,3.12.27,4.67.41,2.58.23,5.16.46,7.74.65.83.06,1.46-.18,1.82-1.57.32-1.24.71-2.47,1.09-3.66.39-1.21.79-2.45,1.09-3.68.59-2.38,2.01-3.4,4.49-3.23,2.11.15,4.61.27,7.08.08.15-.01.3-.02.44-.02Z"/>
        </g>
        <g>
          <g>
            <circle class="cls-7" cx="114.47" cy="115.55" r="68.17"/>
            <path class="cls-5" d="m114.47,48.38c-37.04,0-67.17,30.13-67.17,67.17s30.13,67.17,67.17,67.17,67.17-30.13,67.17-67.17-30.13-67.17-67.17-67.17Zm0,136.35c-38.14,0-69.17-31.03-69.17-69.17s31.03-69.17,69.17-69.17,69.17,31.03,69.17,69.17-31.03,69.17-69.17,69.17Z"/>
          </g>
          <polygon class="cls-5" points="182.64 114.99 113.01 114.99 146.78 55.49 147.65 55.99 114.72 113.99 182.64 113.99 182.64 114.99"/>
          <polygon class="cls-5" points="114.74 114.99 46.31 114.99 46.31 113.99 112.98 113.99 79.2 57.2 80.06 56.69 114.74 114.99"/>
          <polygon class="cls-5" points="80.26 174.51 79.39 174.02 113.85 113.5 150.23 173.61 149.38 174.12 113.88 115.48 80.26 174.51"/>
          <g>
            <g>
              <g>
                <line class="cls-1" x1="141.34" y1="113.61" x2="146.34" y2="78.94"/>
                <rect class="cls-8" x="126.32" y="95.77" width="35.03" height="1" transform="translate(28.05 224.92) rotate(-81.81)"/>
              </g>
              <g>
                <line class="cls-1" x1="165" y1="113.61" x2="158.67" y2="78.94"/>
                <rect class="cls-8" x="161.34" y="78.65" width="1" height="35.24" transform="translate(-14.67 30.66) rotate(-10.35)"/>
              </g>
              <rect class="cls-8" x="137.67" y="88.23" width="29" height="1"/>
              <rect class="cls-8" x="141.34" y="81.11" width="21.96" height="1"/>
              <polygon class="cls-8" points="141.91 111.98 141.35 111.15 160.29 98.11 144.85 87.44 158.66 79.78 159.14 80.65 146.74 87.53 162.05 98.11 141.91 111.98"/>
              <polygon class="cls-8" points="163.51 111.97 142.94 97.59 158.45 87.52 146.09 80.65 146.58 79.78 160.39 87.45 144.73 97.62 164.08 111.16 163.51 111.97"/>
            </g>
            <rect class="cls-8" x="144.77" y="97.76" width="15.98" height="1"/>
            <rect class="cls-8" x="151.67" y="71.27" width="1" height="7.67"/>
            <rect class="cls-8" x="148.84" y="75.11" width="6.92" height="1"/>
          </g>
          <g>
            <path class="cls-8" d="m161.37,159.76h-16.37l8.63-44.25,7.73,44.25Zm-15.15-1h13.96l-6.6-37.75-7.37,37.75Z"/>
            <path class="cls-8" d="m169.02,147.01h-31.25v-3.98l8.59-4.29-8.59-4.68v-4.8h31.25v3.7l-8.75,5.28,8.75,4.89v3.88Zm-30.25-1h29.25v-2.29l-9.75-5.44,9.75-5.88v-2.13h-29.25v3.2l9.75,5.32-9.75,4.87v2.36Z"/>
            <path class="cls-8" d="m147.85,159.68l-.54-.84,4.84-3.09-5.61-3.07,7.24-3.97-5.94-3.91,4.59-3.16-2.72-2.9,3.34-3.19-2.85-2.48,2.61-1.78-2.6-2.02h7.33l-3.04,2.07,2.25,2.05-2.22,2.13,3.14,3.12-3.72,3.17,4.93,5.25-3.17,1.73,4.27,3.14-5.88,3.76,6.14,3.36-2.41-.18-4.69-2.57-5.3,3.38Zm.77-7l4.49,2.46,5.3-3.38-3.68-2.42-6.11,3.34Zm1.01-7.89l5.14,3.38,2.5-1.37-4.15-4.42-3.49,2.41Zm1.49-6l2.15,2.29,3.42-2.35-2.88-2.51-2.69,2.57Zm.71-5.62l1.94,1.69,1.63-1.56-1.76-1.37-1.81,1.24Zm1.29-2.9l.55.43.63-.43h-1.18Z"/>
          </g>
          <g>
            <g>
              <rect class="cls-8" x="113.06" y="127.49" width="2.17" height="56.23"/>
              <g>
                <rect class="cls-8" x="102.58" y="144.75" width="23" height="24.5"/>
                <path class="cls-1" d="m116.91,162c-1.44-.88.75-3.62.75-3.62,0,0,2.03-4.05,0-6.5-1.53-1.85-3.23-1.82-3.73-1.77-.49-.05-2.2-.08-3.73,1.77-2.03,2.45,0,6.5,0,6.5,0,0,2.19,2.75.75,3.62-2.95,1.8-3.38,3-3.38,3h12.71s-.42-1.2-3.38-3Z"/>
              </g>
            </g>
            <polygon class="cls-8" points="110.72 144.75 109.72 144.75 109.72 139.38 103.38 133.52 104.06 132.79 110.72 138.94 110.72 144.75"/>
            <polygon class="cls-8" points="118.06 144.75 117.06 144.75 117.06 138.71 124.41 132.77 125.04 133.55 118.06 139.19 118.06 144.75"/>
            <polygon class="cls-8" points="106.89 144.75 105.89 144.75 105.89 140.9 100.92 137.05 101.53 136.26 106.89 140.41 106.89 144.75"/>
            <polygon class="cls-8" points="121.64 144.75 120.64 144.75 120.64 141.25 126.74 136.27 127.37 137.04 121.64 141.73 121.64 144.75"/>
            <polygon class="cls-8" points="102.58 150.59 97.3 150.59 94.99 147.45 95.79 146.86 97.81 149.59 102.58 149.59 102.58 150.59"/>
            <polygon class="cls-8" points="102.58 154.49 95.96 154.49 93.14 150.37 93.97 149.81 96.49 153.49 102.58 153.49 102.58 154.49"/>
            <rect class="cls-8" x="89.89" y="157.04" width="12.69" height="1"/>
            <polygon class="cls-8" points="84.61 167.27 84.17 166.37 95.28 160.99 102.58 160.99 102.58 161.99 95.5 161.99 84.61 167.27"/>
            <polygon class="cls-8" points="84.73 177.37 84.05 176.64 97.32 164.05 102.54 164.05 102.54 165.05 97.72 165.05 84.73 177.37"/>
            <polygon class="cls-8" points="93.01 180.54 92.66 179.6 97.9 177.69 107.08 174.15 107.08 169.25 108.08 169.25 108.08 174.83 98.25 178.62 93.01 180.54"/>
            <polygon class="cls-8" points="102.11 182.93 101.48 182.16 105.24 179.1 110.56 174.27 110.56 169.25 111.56 169.25 111.56 174.71 105.89 179.86 102.11 182.93"/>
            <polygon class="cls-8" points="125.88 183.1 122.81 180.45 117.06 174.7 117.06 169.25 118.06 169.25 118.06 174.28 123.49 179.72 126.53 182.34 125.88 183.1"/>
            <polygon class="cls-8" points="133.62 181.36 131.14 179.92 120.64 174 120.64 169.25 121.64 169.25 121.64 173.41 134.12 180.49 133.62 181.36"/>
            <polygon class="cls-8" points="144.86 176.9 133.25 165.5 125.58 165.5 125.58 164.5 133.66 164.5 145.56 176.18 144.86 176.9"/>
            <polygon class="cls-8" points="145.4 167.28 133.99 161.99 125.58 161.99 125.58 160.99 134.31 161.04 145.82 166.37 145.4 167.28"/>
            <rect class="cls-8" x="125.58" y="157.04" width="13.95" height="1"/>
            <polygon class="cls-8" points="132.58 154.49 125.58 154.49 125.58 153.49 132.06 153.49 134.66 149.8 135.48 150.38 132.58 154.49"/>
            <polygon class="cls-8" points="130.54 149.12 125.58 149.12 125.58 148.12 130.11 148.12 131.95 146.15 132.68 146.83 130.54 149.12"/>
          </g>
          <g>
            <g>
              <polygon class="cls-8" points="59.77 156.3 89.6 156.3 86.44 161.64 64.27 161.64 59.77 156.3"/>
              <path class="cls-8" d="m86.72,162.14h-22.68l-5.34-6.33h31.79l-3.76,6.33Zm-22.22-1h21.65l2.57-4.33h-27.88l3.66,4.33Z"/>
            </g>
            <polygon class="cls-8" points="82.44 155.97 75.27 155.97 75.27 127.8 69.94 127.8 69.94 155.97 63.94 155.97 63.94 134.8 56.94 134.8 56.94 150.97 55.94 150.97 55.94 133.8 64.94 133.8 64.94 154.97 68.94 154.97 68.94 126.8 76.27 126.8 76.27 154.97 81.44 154.97 81.44 134.8 90.94 134.8 90.94 154.18 89.63 155.49 88.92 154.78 89.94 153.76 89.94 135.8 82.44 135.8 82.44 155.97"/>
            <polygon class="cls-8" points="80.39 146.88 72.72 142.29 65.6 146.87 65.06 146.03 72.7 141.11 80.9 146.02 80.39 146.88"/>
            <path d="m72.35,120.98c.59.1.85.51,1.05.91.45.89.88,1.77,2.05,1.91.23.03.5.25.47.54-.03.34-.36.28-.6.32-2.21.33-2.62-.01-2.73-2.19-.02-.49-.15-.97-.24-1.49Z"/>
            <path d="m68.34,121.17c.73.24,1,.79,1.3,1.33.4.73.78,1.47,1.77,1.55.32.03.66.28.63.59-.05.54-.55.31-.87.33-2.27.14-2.33.06-2.5-2.13-.04-.54-.21-1.06-.33-1.66Z"/>
          </g>
          <g>
            <path class="cls-4" d="m112.06,111.23s.1.07.15.11l-.6-1.02c-.02.39.13.67.45.91Z"/>
            <path d="m97.36,86.68c-.32-.08-.54.02-.7.32-.65,1.21-1.3,2.42-1.96,3.64-.04.08-.08.15-.13.22-.11.16-.24.24-.45.24-.41,0-.83.02-1.24.05-.34.02-.59-.1-.78-.38-.78-1.14-1.58-2.27-2.36-3.41-.23-.34-.44-.4-.83-.27-1.22.41-2.43.82-3.65,1.23-.37.13-.49.31-.46.7.11,1.35.21,2.7.32,4.05.03.34-.09.59-.37.78-.36.24-.72.49-1.08.75-.29.21-.58.23-.91.09-1.27-.53-2.54-1.05-3.81-1.58-.37-.15-.57-.1-.82.2-.79.98-1.58,1.95-2.37,2.93-.23.28-.23.51-.01.8.82,1.08,1.63,2.16,2.46,3.23.21.28.25.55.11.87-.22.5-.42,1-.63,1.5-.13.31-.34.49-.67.55-1.38.24-2.76.5-4.15.75-.28.05-.46.22-.5.48-.2,1.34-.37,2.68-.42,4.04,0,.14.04.21.17.26,1.36.49,2.71,1,4.07,1.48.35.12.54.35.6.71.1.61.22,1.22.34,1.83.06.33-.02.59-.27.82-.23.21-.46.43-.69.64h6.23c-.78-1.67-1.24-3.53-1.24-5.5.04-7.18,5.85-12.97,12.97-12.93,7.18.04,12.95,5.84,12.92,12.96,0,1.96-.46,3.81-1.24,5.47h8.09l-1.69-2.85s-.1-.07-.15-.11c-.33-.24-.48-.52-.45-.91l-14-23.59c-.08-.02-.16-.04-.24-.06Z"/>
            <path class="cls-7" d="m107.05,108.72c.03-7.12-5.74-12.92-12.92-12.96-7.12-.04-12.94,5.75-12.97,12.93,0,1.97.46,3.83,1.24,5.5h23.41c.78-1.66,1.23-3.51,1.24-5.47Z"/>
          </g>
          <rect class="cls-8" x="69.44" y="144.95" width="6.33" height="1"/>
          <polygon class="cls-6" points="97.36 99.68 97.36 121.18 113.86 129.3 128.86 121.18 128.86 99.68 97.36 99.68"/>
          <g>
            <path class="cls-1" d="m101.88,117.26v-.65l.83-.8c1.99-1.9,2.9-2.9,2.9-4.08,0-.79-.37-1.52-1.54-1.52-.71,0-1.3.36-1.65.66l-.34-.74c.53-.44,1.31-.79,2.19-.79,1.68,0,2.39,1.15,2.39,2.27,0,1.44-1.04,2.6-2.69,4.19l-.61.58v.02h3.49v.88h-4.98Z"/>
            <path class="cls-1" d="m113.22,113.28c0,2.65-1,4.11-2.71,4.11-1.52,0-2.57-1.43-2.59-4.01,0-2.63,1.14-4.05,2.72-4.05s2.58,1.46,2.58,3.95Zm-4.23.12c0,2.03.62,3.18,1.58,3.18,1.07,0,1.58-1.26,1.58-3.25s-.48-3.18-1.58-3.18c-.91,0-1.58,1.13-1.58,3.25Z"/>
            <path class="cls-1" d="m119.38,113.28c0,2.65-1,4.11-2.71,4.11-1.52,0-2.57-1.43-2.59-4.01,0-2.63,1.14-4.05,2.72-4.05s2.58,1.46,2.58,3.95Zm-4.23.12c0,2.03.62,3.18,1.58,3.18,1.07,0,1.58-1.26,1.58-3.25s-.48-3.18-1.58-3.18c-.91,0-1.58,1.13-1.58,3.25Z"/>
            <path class="cls-1" d="m125.4,109.47v.7l-3.39,7.1h-1.09l3.38-6.9v-.02h-3.81v-.88h4.92Z"/>
          </g>
          <g>
            <path d="m52.38,99.47c.63,1.37,1.27,2.74,1.9,4.12.13.29.31.49.61.58.39-.04.78-.09,1.17-.13.42-.09.83-.17,1.25-.26.64-.14,1.28-.28,1.92-.42.3-.07.49-.29.52-.62.14-1.47.31-2.93.41-4.4.04-.65.28-1.06.88-1.31.54-.23,1.05-.52,1.57-.8.34-.18.65-.17.98.04,1.28.82,2.57,1.64,3.86,2.46.4.25.63.23.96-.09,1.01-.96,2.01-1.91,3.01-2.87.28-.27.33-.53.15-.88-.72-1.4-1.44-2.81-2.17-4.2-.19-.36-.18-.69.02-1.04.31-.51.6-1.03.89-1.55.17-.3.42-.45.77-.45,1.58,0,3.17-.02,4.75-.03.3,0,.55-.18.62-.48.36-1.46.71-2.92,1.07-4.39.08-.32-.05-.58-.36-.75-1.34-.78-2.68-1.56-4.04-2.32-.42-.24-.64-.55-.64-1.03,0-.44-.04-.89-.06-1.33-.02-.37.13-.64.44-.84,1.28-.83,2.55-1.66,3.84-2.49.23-.15.4-.31.46-.58-.01-.09-.02-.18-.03-.27-.13-.37-.27-.73-.4-1.1-.37-1.08-.73-2.16-1.09-3.24-.12-.35-.34-.5-.71-.49-1.58.07-3.15.14-4.73.23-.42.02-.73-.11-.97-.47-.22-.33-.46-.66-.69-.98-.17-.24-.21-.5-.13-.77-1.47,1.22-2.86,2.52-4.2,3.88,1.57,2.05,2.63,4.53,2.93,7.29.88,8.1-4.93,15.36-12.99,16.25-1.2.13-2.39.1-3.54-.05-.46,1.63-.85,3.3-1.16,4.99.71.08,1.43.16,2.14.23.37.04.62.22.77.55Z"/>
            <path d="m53.64,89.05c5.47-.6,9.42-5.53,8.82-11.03-.17-1.55-.69-2.96-1.47-4.2-3.72,4.54-6.72,9.69-8.84,15.27.49.02.99.01,1.49-.04Z"/>
          </g>
          <polygon points="70.19 125.12 67.75 122.99 68.97 125.12 70.19 125.12"/>
          <polygon points="74.98 122.99 76.36 125.12 77.17 125.12 74.98 122.99"/>
        </g>
        <g>
          <path class="cls-1" d="m35,114.1l-7.85,1.34,6.62,2.76.11,2.02-6.29,3.48,7.94.51.14,2.63-12.82-.9-.12-2.18,8.15-4.38-8.56-3.46-.12-2.22,12.66-2.23.14,2.63Z"/>
          <path class="cls-1" d="m27.5,100.99l12.25,6.65-.27,2.58-4.82-2.56-8.13,2.57.28-2.65,5.17-1.5-4.75-2.49.27-2.6Z"/>
          <path class="cls-1" d="m35.07,86.46l4.58,1.23-.63,2.36-4.4-1.18c-1.31-.35-2.03.19-2.25,1.01-.27.93.15,1.75,1.38,2.14l4.42,1.18-.63,2.34-4.42-1.18c-1.31-.35-2.01.19-2.22.98-.23.84-.06,1.81,1.44,2.21l4.35,1.16-.63,2.34-8.34-2.23.63-2.34,1.49.4c-1.08-.56-1.32-1.89-1.07-2.82.33-1.23,1.18-2.04,2.33-2.25-1.04-.97-1.09-2.36-.86-3.22.56-2.09,2.32-2.79,4.83-2.12Z"/>
          <path class="cls-1" d="m40.79,76.81l-2.69,5.94c1.02.18,1.86-.34,2.34-1.4.36-.79.4-1.73.05-2.46l1.89-.71c.66,1.19.57,2.82-.05,4.21-1.09,2.41-3.55,3.44-5.98,2.34-2.55-1.15-3.27-3.8-2.24-6.06,1.02-2.25,3.43-3.37,5.85-2.28.22.1.48.24.83.42Zm-2.42,1.53c-.96-.35-1.87.17-2.32,1.17-.4.89-.34,1.88.62,2.6l1.7-3.77Z"/>
          <path class="cls-1" d="m45.15,67.28l4.03,2.5-1.28,2.06-3.81-2.36c-1.17-.72-2.11-.35-2.55.36-.46.74-.63,1.9.71,2.73l3.76,2.33-1.28,2.06-7.34-4.54,1.28-2.06,1.23.76c-.8-.93-.5-2.36-.05-3.08,1.19-1.92,3.11-2.13,5.3-.75Z"/>
          <path class="cls-1" d="m47.87,66.89l1.42-1.78c.39.31,1.08.31,1.61-.36.44-.55.54-1.16.15-1.47-.29-.23-.62-.11-1.15.29l-.93.73c-1.85,1.37-3,.83-3.71.27-1.04-.83-1.15-2.69.09-4.26.98-1.23,2.74-2.2,4.33-.91l-1.44,1.81c-.45-.36-1-.18-1.35.27-.35.43-.4.96-.06,1.23.32.25.71.09,1.11-.21l1.18-.89c1.73-1.28,2.9-.67,3.45-.24,1.42,1.13.96,3.13-.14,4.52-1.13,1.42-3.04,2.15-4.54.98Z"/>
          <path class="cls-1" d="m46.97,54.07c-.59-.56-.57-1.5,0-2.11.58-.62,1.51-.69,2.11-.13.59.56.6,1.5.02,2.12-.57.61-1.52.68-2.12.12Zm2.42,1.81l1.66-1.77,6.3,5.9-1.66,1.77-6.3-5.9Z"/>
          <path class="cls-1" d="m61.99,49.27l3.14,3.56-1.82,1.61-2.96-3.36c-.91-1.03-1.92-.95-2.55-.4-.65.58-1.15,1.63-.11,2.81l2.93,3.32-1.82,1.6-5.71-6.47,1.82-1.6.96,1.08c-.49-1.12.2-2.4.84-2.97,1.69-1.49,3.59-1.14,5.29.82Z"/>
          <path class="cls-1" d="m69.27,39.49l4.14,6.2c2.1,3.14,1.49,5.67-1.05,7.37-1.54,1.03-3.46,1.06-4.96.15l1.2-1.85c.74.44,1.79.41,2.56-.11,1.29-.86,1.64-2.12.38-4l-.07-.11c-.06,1.04-.83,2.03-1.63,2.56-1.85,1.24-4.49.92-6.03-1.39-1.54-2.31-.82-4.87,1.03-6.1.82-.55,2-.87,2.99-.53l-.57-.85,2.02-1.35Zm.31,4.97c-.74-1.11-2.16-1.23-3.1-.6-1.02.68-1.34,2.03-.63,3.09.7,1.05,2.09,1.3,3.11.62.99-.66,1.35-2.02.62-3.11Z"/>
          <path class="cls-1" d="m81.35,37.71l2.08,4.26-2.18,1.06-1.97-4.03c-.6-1.23-1.6-1.42-2.35-1.06-.78.38-1.54,1.27-.85,2.68l1.94,3.98-2.18,1.06-5.81-11.9,2.18-1.07,2.62,5.36c-.15-1.14.89-2.19,1.64-2.55,2.03-.99,3.76-.15,4.88,2.19Z"/>
          <path class="cls-1" d="m96.8,35.35l.61,2.2-7.88,2.17-3.39-12.31,7.72-2.13.61,2.2-5.23,1.44.81,2.93,4.59-1.27.62,2.23-4.59,1.27.76,2.75,5.4-1.49Z"/>
          <path class="cls-1" d="m106.7,31.37l.66,4.7-2.4.34-.62-4.44c-.19-1.36-1.08-1.85-1.91-1.73-.86.12-1.86.73-1.64,2.29l.62,4.38-2.4.34-1.2-8.55,2.4-.34.2,1.43c.2-1.21,1.49-1.89,2.34-2.01,2.24-.32,3.62,1.02,3.97,3.6Z"/>
          <path class="cls-1" d="m118.08,27.18l.12,7.45c.06,3.78-1.82,5.57-4.87,5.62-1.85.03-3.48-.98-4.25-2.56l2-.9c.38.77,1.28,1.31,2.21,1.3,1.56-.03,2.52-.89,2.49-3.15v-.13c-.62.84-1.8,1.25-2.76,1.27-2.22.04-4.27-1.65-4.32-4.43-.05-2.78,1.94-4.53,4.17-4.57.98-.02,2.15.35,2.8,1.18l-.02-1.02,2.43-.04Zm-2.43,4.34c-.02-1.33-1.15-2.2-2.28-2.19-1.22.02-2.23.98-2.2,2.26.02,1.26,1.06,2.22,2.28,2.2,1.19-.02,2.23-.96,2.2-2.28Z"/>
          <path class="cls-1" d="m121.12,27.52l2.42.22-.79,8.59-2.42-.22.79-8.59Zm-.06-3.02c.07-.81.83-1.37,1.66-1.3.85.08,1.47.77,1.4,1.58-.07.81-.82,1.39-1.66,1.32-.83-.08-1.47-.79-1.4-1.6Z"/>
          <path class="cls-1" d="m134.07,33.41l-.88,4.66-2.39-.45.84-4.4c.25-1.35-.43-2.1-1.25-2.25-.85-.16-2,.09-2.29,1.64l-.82,4.35-2.38-.45,1.61-8.48,2.39.45-.27,1.42c.58-1.08,2.02-1.31,2.86-1.16,2.22.42,3.1,2.13,2.6,4.68Z"/>
          <path class="cls-1" d="m144.27,37.86l-6.2-2.03c-.07,1.03.54,1.81,1.65,2.18.83.27,1.76.21,2.45-.21l.91,1.8c-1.11.78-2.74.87-4.19.4-2.52-.83-3.8-3.16-2.97-5.69.87-2.66,3.42-3.66,5.78-2.88,2.34.77,3.72,3.05,2.89,5.57-.07.23-.18.5-.32.87Zm-1.78-2.24c.25-.99-.37-1.84-1.41-2.18-.93-.31-1.9-.14-2.51.89l3.93,1.29Z"/>
          <path class="cls-1" d="m153.76,42.28l-5.89-2.81c-.2,1.02.3,1.87,1.35,2.37.79.37,1.72.43,2.45.1l.67,1.9c-1.21.64-2.83.52-4.2-.14-2.39-1.14-3.37-3.62-2.22-6.02,1.2-2.53,3.86-3.19,6.1-2.12,2.22,1.06,3.3,3.5,2.16,5.89-.1.22-.25.48-.43.82Zm-1.48-2.45c.37-.95-.14-1.87-1.12-2.34-.89-.42-1.87-.38-2.61.56l3.73,1.78Z"/>
          <path class="cls-1" d="m163.45,42.36l-1.69,1.68c-.29-.51-.64-.77-.89-.92-1.06-.65-2.39-.13-3.68,1.97l-1.56,2.52-2.06-1.28,4.54-7.34,2.05,1.27-.97,1.56c1.17-.98,2.33-.98,3.24-.41.39.24.8.58,1.02.96Z"/>
          <path class="cls-1" d="m164.86,43.36l1.96,1.43-5.09,6.97-1.96-1.43,5.09-6.97Zm1.5-2.62c.48-.66,1.42-.75,2.09-.26.69.5.87,1.41.39,2.07s-1.42.78-2.1.28c-.67-.49-.86-1.43-.38-2.09Z"/>
          <path class="cls-1" d="m172.96,55.06l-3.14,3.55-1.81-1.61,2.97-3.35c.91-1.03.7-2.02.08-2.58-.65-.58-1.76-.94-2.81.23l-2.94,3.31-1.81-1.61,5.72-6.46,1.81,1.61-.96,1.08c1.05-.63,2.41-.09,3.05.47,1.69,1.5,1.57,3.42-.16,5.35Z"/>
          <path class="cls-1" d="m183.54,61.09l-5.64,4.86c-2.86,2.47-5.44,2.17-7.44-.15-1.21-1.4-1.48-3.3-.75-4.9l1.98.96c-.35.79-.19,1.82.42,2.53,1.02,1.18,2.3,1.37,4.01-.11l.1-.09c-1.04.07-2.11-.58-2.74-1.31-1.45-1.68-1.46-4.34.64-6.15,2.1-1.81,4.73-1.41,6.18.28.64.74,1.11,1.88.89,2.9l.77-.67,1.58,1.84Zm-4.89.91c1.01-.87.96-2.29.22-3.15-.8-.93-2.18-1.08-3.15-.25-.95.82-1.03,2.23-.24,3.16.77.9,2.16,1.09,3.16.23Z"/>
          <path class="cls-1" d="m186.02,68.29c3.14-1.75,7.09-.68,8.86,2.47,1.06,1.89,1.08,4.05.23,5.84l-2.2-1.02c.54-1.13.56-2.37-.1-3.55-1.13-2.02-3.54-2.6-5.53-1.49-1.99,1.11-2.79,3.47-1.66,5.49.67,1.2,1.74,1.83,3,1.95l-.3,2.42c-1.95-.22-3.79-1.36-4.85-3.25-1.76-3.15-.61-7.09,2.56-8.86Z"/>
          <path class="cls-1" d="m190.38,80.67c2.56-.99,5,.42,5.89,2.71.88,2.3.01,4.98-2.55,5.96-2.54.98-4.99-.42-5.87-2.72-.88-2.3-.01-4.98,2.53-5.96Zm2.45,6.38c1.26-.49,1.76-1.73,1.32-2.85-.43-1.12-1.63-1.71-2.89-1.23-1.24.48-1.74,1.72-1.31,2.84.43,1.12,1.63,1.71,2.88,1.23Z"/>
          <path class="cls-1" d="m202.78,88.92l.65,2.34-12.76,3.55-.65-2.34,12.76-3.56Z"/>
          <path class="cls-1" d="m204.16,94.25l.51,2.37-12.95,2.79-.51-2.37,12.94-2.79Z"/>
          <path class="cls-1" d="m196.73,109.53l-.77-6.47c-.96.38-1.42,1.25-1.28,2.41.1.86.56,1.69,1.22,2.13l-1.25,1.59c-1.18-.68-1.95-2.12-2.13-3.63-.31-2.63,1.26-4.78,3.91-5.09,2.78-.33,4.76,1.56,5.05,4.02.29,2.45-1.2,4.66-3.83,4.97-.24.03-.54.05-.92.07Zm1.28-2.56c1-.19,1.51-1.11,1.38-2.2-.12-.98-.68-1.78-1.87-1.9l.49,4.1Z"/>
          <path class="cls-1" d="m201.79,120.5l-7.44-.12c-3.78-.06-5.51-2-5.46-5.06.03-1.85,1.09-3.45,2.7-4.16l.84,2.03c-.78.36-1.35,1.24-1.37,2.16-.03,1.56.81,2.55,3.07,2.59h.13c-.82-.64-1.19-1.83-1.18-2.8.04-2.22,1.79-4.21,4.57-4.17,2.78.05,4.47,2.09,4.43,4.32-.02.98-.42,2.14-1.27,2.76l1.02.02-.04,2.43Zm-4.26-2.57c1.33.02,2.24-1.07,2.26-2.2.02-1.22-.91-2.26-2.19-2.28-1.26-.02-2.26.98-2.28,2.2-.02,1.19.89,2.26,2.2,2.28Z"/>
          <path class="cls-1" d="m195.28,131.34l.93-6.45c-1.03.11-1.69.84-1.86,2-.12.86.1,1.77.63,2.37l-1.61,1.21c-.97-.96-1.34-2.55-1.12-4.05.38-2.62,2.45-4.29,5.09-3.91,2.77.4,4.19,2.74,3.83,5.19-.35,2.44-2.36,4.19-4.98,3.81-.24-.03-.53-.1-.91-.17Zm1.9-2.14c1.02.07,1.74-.68,1.9-1.77.14-.97-.19-1.9-1.31-2.32l-.59,4.09Z"/>
        </g>
        <g>
          <path class="cls-1" d="m33.58,156.48l5.6-4.57-6.46.77-.99-1.54,3.41-5.56-6.5,3.15-1.28-2.01,10.53-5.02,1.07,1.67-4.48,7.1,8.31-1.09,1.08,1.7-9.01,7.42-1.28-2.01Z"/>
          <path class="cls-1" d="m47.02,161.55l-12.26,3.13-1.41-1.89,4.78-1.27,3.83-6.73,1.45,1.94-2.51,4.19,4.7-1.27,1.42,1.9Z"/>
          <path class="cls-1" d="m53.29,174.29l-3.24,2.83-1.46-1.67,3.11-2.72c.92-.81.88-1.62.37-2.2-.56-.67-1.39-.77-2.31-.04l-3.13,2.73-1.45-1.66,3.13-2.73c.92-.81.87-1.61.38-2.17-.52-.59-1.33-.96-2.39-.03l-3.08,2.69-1.45-1.66,5.9-5.16,1.45,1.66-1.05.92c.96-.53,2.09-.04,2.66.62.76.87.94,1.92.52,2.9,1.26-.3,2.33.37,2.86.98,1.3,1.48.93,3.16-.84,4.71Z"/>
          <path class="cls-1" d="m59.86,182.05l-4.28-4.09c-.46.82-.27,1.7.5,2.43.57.54,1.36.86,2.09.78l.04,1.83c-1.22.21-2.59-.36-3.59-1.31-1.74-1.66-1.88-4.07-.21-5.82,1.75-1.84,4.23-1.66,5.86-.1,1.62,1.54,1.85,3.95.19,5.69-.15.16-.35.34-.6.59Zm-.58-2.53c.59-.72.41-1.65-.3-2.33-.64-.62-1.51-.86-2.41-.25l2.71,2.59Z"/>
          <path class="cls-1" d="m68.11,187.4l-2.7,3.35-1.71-1.38,2.55-3.17c.78-.97.55-1.86-.04-2.34-.62-.5-1.64-.78-2.54.33l-2.52,3.13-1.72-1.38,4.92-6.1,1.71,1.38-.82,1.02c.93-.61,2.18-.19,2.78.3,1.6,1.29,1.57,3.04.08,4.86Z"/>
          <path class="cls-1" d="m68.66,189.99l1.72,1.15c-.25.38-.2,1,.44,1.43.53.36,1.09.4,1.34.03.19-.28.06-.57-.35-1.02l-.73-.79c-1.38-1.57-.98-2.65-.52-3.34.67-1.01,2.35-1.24,3.86-.23,1.19.79,2.19,2.32,1.15,3.84l-1.75-1.17c.29-.43.09-.91-.35-1.2-.42-.28-.89-.29-1.12.04-.21.31-.03.65.27.99l.89,1c1.28,1.47.83,2.58.47,3.11-.92,1.37-2.76,1.1-4.1.21-1.37-.92-2.17-2.59-1.22-4.03Z"/>
          <path class="cls-1" d="m78.56,190.06l1.91,1.1-3.9,6.8-1.91-1.1,3.9-6.8Zm1.09-2.51c.37-.64,1.21-.82,1.86-.44.67.38.93,1.19.56,1.83-.37.64-1.2.84-1.87.46-.66-.38-.92-1.21-.55-1.85Z"/>
          <path class="cls-1" d="m87.86,198.68l-1.8,3.91-2-.92,1.7-3.7c.52-1.13.08-1.94-.61-2.26-.72-.33-1.78-.36-2.38.94l-1.68,3.65-2-.92,3.28-7.12,2,.92-.55,1.19c.75-.82,2.07-.71,2.77-.39,1.86.86,2.27,2.56,1.27,4.69Z"/>
          <path class="cls-1" d="m99.05,198.55l-1.93,6.48c-.98,3.29-3.09,4.32-5.75,3.53-1.61-.48-2.75-1.8-2.98-3.38l1.98-.24c.12.77.75,1.49,1.56,1.73,1.35.4,2.43-.08,3.01-2.05l.03-.11c-.76.56-1.9.59-2.73.34-1.93-.57-3.24-2.6-2.53-5.02.72-2.42,2.92-3.39,4.86-2.82.85.25,1.77.89,2.1,1.78l.26-.89,2.11.63Zm-3.29,3.09c.34-1.16-.39-2.22-1.38-2.52-1.06-.32-2.19.24-2.53,1.35-.33,1.1.31,2.21,1.37,2.53,1.03.31,2.19-.23,2.53-1.37Z"/>
          <path class="cls-1" d="m108.32,203.51l-.57,4.27-2.18-.29.54-4.03c.16-1.23-.5-1.88-1.25-1.98-.78-.1-1.81.18-2,1.6l-.53,3.98-2.18-.29,1.59-11.92,2.18.29-.72,5.37c.46-.94,1.77-1.2,2.52-1.1,2.03.27,2.92,1.78,2.59,4.11Z"/>
          <path class="cls-1" d="m110.84,202.96l5.92-.14.05,1.95-5.92.14-.05-1.95Z"/>
          <path class="cls-1" d="m128.22,203.28c.21,1.58-.65,3.43-3.18,3.76l-4.9.65-1.53-11.49,4.55-.61c2.05-.27,3.53.79,3.76,2.52.11.85-.07,2.04-1.27,2.6,1.5.05,2.39,1.26,2.56,2.56Zm-7.02-5.33l.33,2.52,2.1-.28c.73-.1,1.12-.64,1.02-1.42-.09-.7-.53-1.2-1.35-1.09l-2.1.28Zm4.65,5.4c-.09-.72-.68-1.4-1.78-1.26l-2.28.3.39,2.93,2.25-.3c1.08-.14,1.52-.91,1.42-1.68Z"/>
          <path class="cls-1" d="m137.17,196.18l2.13,7.54-2.12.6-.27-.94c-.32.89-1.28,1.53-2.12,1.77-1.94.55-4.13-.46-4.82-2.89-.69-2.43.65-4.43,2.59-4.98.87-.25,1.98-.21,2.73.4l-.26-.91,2.12-.6Zm-1.12,4.37c-.33-1.16-1.52-1.67-2.51-1.39-1.07.3-1.73,1.38-1.41,2.49.31,1.1,1.44,1.71,2.51,1.41,1.04-.29,1.73-1.36,1.4-2.51Z"/>
          <path class="cls-1" d="m147.66,195.65l1.7,3.95-2.02.87-1.61-3.74c-.49-1.14-1.39-1.36-2.08-1.06-.73.31-1.46,1.08-.89,2.4l1.59,3.69-2.02.87-3.09-7.2,2.02-.87.52,1.2c-.11-1.11.85-2.01,1.57-2.32,1.88-.81,3.42.03,4.33,2.2Z"/>
          <path class="cls-1" d="m155.13,187.4l3.4,5.85c1.72,2.97,1.03,5.22-1.37,6.61-1.45.84-3.19.76-4.5-.15l1.19-1.6c.64.44,1.6.47,2.32.05,1.22-.71,1.6-1.83.57-3.6l-.06-.1c-.11.94-.87,1.79-1.62,2.23-1.74,1.01-4.12.58-5.38-1.6-1.27-2.18-.47-4.45,1.28-5.47.77-.45,1.86-.67,2.74-.31l-.46-.8,1.9-1.11Zm0,4.51c-.61-1.05-1.89-1.24-2.77-.72-.96.56-1.33,1.76-.75,2.77.57.99,1.82,1.3,2.78.74.93-.54,1.34-1.75.74-2.78Z"/>
          <path class="cls-1" d="m154.52,182.69l1.81-1.26,6.85,9.88-1.81,1.25-6.85-9.88Z"/>
          <path class="cls-1" d="m166.86,178.55l4.92,6.1-1.71,1.38-.61-.76c.05.95-.58,1.91-1.26,2.46-1.57,1.27-3.98,1.2-5.56-.76-1.58-1.96-1.14-4.33.43-5.6.71-.57,1.74-.97,2.67-.71l-.59-.73,1.71-1.38Zm.68,4.46c-.76-.94-2.05-.94-2.85-.29-.86.7-1.05,1.94-.32,2.85.72.89,2,1,2.86.31.84-.68,1.06-1.93.31-2.86Z"/>
          <path class="cls-1" d="m171.37,168.45l8.38,8.62-1.58,1.54-.68-.7c.14.94-.4,1.96-1.02,2.57-1.45,1.41-3.85,1.56-5.61-.25-1.76-1.81-1.53-4.21-.09-5.62.65-.63,1.65-1.13,2.59-.95l-3.57-3.68,1.58-1.54Zm4.01,7.38c-.84-.87-2.13-.74-2.87-.03-.8.77-.86,2.03-.05,2.87.8.82,2.08.81,2.88.04.77-.75.87-2.02.04-2.88Z"/>
          <path class="cls-1" d="m184.36,167.09l-3.91,4.45c.84.42,1.7.2,2.4-.6.52-.59.8-1.4.7-2.12l1.83-.12c.26,1.21-.25,2.6-1.16,3.64-1.59,1.81-3.99,2.04-5.81.45-1.91-1.68-1.83-4.16-.34-5.85,1.48-1.68,3.87-2.01,5.68-.43.16.14.36.33.61.58Zm-2.51.69c-.74-.56-1.67-.34-2.32.4-.59.67-.79,1.54-.15,2.42l2.47-2.82Z"/>
          <path class="cls-1" d="m185.86,166.32l1.27-1.64c.36.28.98.27,1.46-.34.39-.5.48-1.06.12-1.33-.27-.21-.56-.1-1.04.28l-.84.67c-1.66,1.27-2.72.79-3.37.29-.96-.74-1.08-2.43.03-3.86.87-1.13,2.46-2.03,3.92-.88l-1.29,1.66c-.41-.32-.91-.15-1.23.26-.31.4-.36.87-.04,1.12.29.23.64.07,1.01-.2l1.06-.82c1.55-1.18,2.63-.65,3.13-.26,1.3,1.01.91,2.83-.07,4.11-1.01,1.3-2.73,1.99-4.11.94Z"/>
          <path class="cls-1" d="m193.93,152.13l3.56,2.42-1.24,1.82-3.37-2.29c-1.03-.7-1.9-.4-2.33.23-.44.65-.64,1.7.54,2.5l3.32,2.26-1.24,1.82-9.94-6.76,1.24-1.82,4.48,3.05c-.63-.84-.28-2.13.14-2.75,1.15-1.7,2.9-1.81,4.84-.47Z"/>
        </g>
        <circle class="cls-6" cx="195.54" cy="140.91" r="3.14"/>
        <circle class="cls-6" cx="30.53" cy="135.65" r="3.14"/>
        <g>
          <path d="m121.85,59.25c1.43,0,2.86,0,4.29,0,.56,0,.95.14.98.82.03.71-.23,1.06-.97,1.06-2.93,0-5.86,0-8.78,0-.62,0-1.11-.12-1.11-.93,0-.8.45-.94,1.1-.94,1.5,0,3,0,4.5,0Z"/>
          <path d="m109.94,70.12c-.61-.32-1.9.65-2.2-.72-.26-1.18-.39-2.58,1.64-2.32.57.07,1.15.05,1.72,0,1.2-.11,1.83.15,1.82,1.6-.02,1.39-.68,1.53-1.74,1.44-.36-.03-.72,0-1.24,0Z"/>
          <path d="m115.88,70.15c-1.13-.2-2.69.61-2.62-1.57.09-2.52,1.94-1.27,3.03-1.45,1.04-.16,2.33-.43,2.29,1.52-.05,2.41-1.81,1.1-2.7,1.49Z"/>
          <path d="m121.91,70.18c-1-.4-2.82.83-2.69-1.58.15-2.77,2.19-1.16,3.34-1.47,1.16-.31,1.98,0,1.93,1.6-.06,2.26-1.69,1.05-2.59,1.45Z"/>
          <path d="m115.71,76.31c-.13,0-.97.11-1.68-.13-.75-.26-.38-1.11-.43-1.71-.05-.6.23-.93.87-.93,1,0,1.99.02,2.99-.02,1.1-.05,1.89.01,1.85,1.52-.04,1.55-1.02,1.23-1.89,1.27-.36.02-.71,0-1.71,0Z"/>
          <path d="m101.41,58.57c-1.05-.12-2.39.49-2.38-1.52.01-1.98,1.34-1.48,2.38-1.49,1.04,0,2.33-.48,2.33,1.51,0,2.05-1.36,1.34-2.34,1.49Z"/>
          <path d="m124.24,58.56c-1.14-.07-2.42.44-2.38-1.55.04-2.03,1.4-1.41,2.4-1.45,1.08-.05,2.34-.39,2.31,1.56-.03,2.06-1.45,1.25-2.33,1.45Z"/>
          <path d="m107.2,55.54c1.16.05,2.4-.4,2.39,1.56-.01,2.04-1.37,1.42-2.36,1.44-1.03.02-2.32.51-2.29-1.5.02-2.02,1.35-1.37,2.27-1.5Z"/>
          <path d="m113.41,58.56c-1.16-.07-2.43.43-2.4-1.55.03-1.81,1.15-1.47,2.17-1.46,1.08,0,2.29-.4,2.29,1.56,0,1.89-1.2,1.34-2.06,1.45Z"/>
          <path d="m119.29,64.41c.91.63,2.88-.83,2.83,1.15-.05,1.81-1.92.92-2.92.91-.98-.01-2.88.96-2.83-.98.05-1.86,1.96-.48,2.91-1.08Z"/>
          <path d="m107.29,66.74c-1.05-.64-2.86.67-2.9-1.13-.04-2,1.83-.99,2.79-1.01.99-.01,2.85-.9,2.92.85.09,2.27-2.09.31-2.81,1.29Z"/>
          <path d="m119.01,55.55c.91.06,2.05-.37,2.1,1.44.05,1.96-1.19,1.57-2.25,1.55-.97-.02-2.16.45-2.19-1.41-.03-1.92,1.16-1.57,2.35-1.59Z"/>
          <path d="m104.72,73.49c1.06.18,2.49-.53,2.4,1.51-.09,2.07-1.59,1.2-2.52,1.26-.99.07-2.4.59-2.32-1.44.08-2.1,1.62-.98,2.43-1.33Z"/>
          <path d="m122.51,76.35c-.94-.28-2.44.66-2.42-1.44.01-2.1,1.5-1.33,2.43-1.33.94,0,2.42-.74,2.41,1.36,0,2.11-1.52,1.11-2.43,1.42Z"/>
          <path d="m110.27,73.46c.93.34,2.47-.69,2.5,1.41.03,2.05-1.42,1.43-2.39,1.4-.94-.03-2.41.76-2.46-1.32-.06-2.1,1.46-1.18,2.35-1.49Z"/>
          <path d="m105.18,67.12c1.11-.11,1.93-.11,1.96,1.45.04,1.74-.98,1.56-2.07,1.56-1.02,0-1.92.13-1.92-1.48,0-1.7.91-1.65,2.03-1.54Z"/>
          <path d="m104.64,61.95c.5,0,1,.01,1.5,0,.68-.02,1.06.21,1.08.97.03.9-.47,1.08-1.21,1.06-.79-.02-1.58.02-2.36,0-.76-.02-1.68.19-1.64-1.08.04-1.12.87-.92,1.55-.95.36-.02.72,0,1.07,0h0Z"/>
          <path d="m119.67,79.13c-.57,0-1.14.01-1.7,0-.65-.02-.81-.42-.81-.99,0-.58.21-.97.84-.99.92-.02,1.85-.02,2.77-.02.72,0,1.46-.07,1.45,1.03,0,1.12-.79.97-1.48.99-.36,0-.71,0-1.07,0v-.02Z"/>
          <path d="m115.84,63.95c-.57,0-1.14.03-1.7,0-.63-.04-.83-.47-.82-1.03.01-.58.27-.95.89-.96.92-.01,1.85-.03,2.77-.01.68.01,1.49-.17,1.53.94.05,1.26-.85,1.06-1.61,1.08-.35.01-.71,0-1.07,0,0,0,0-.02,0-.02Z"/>
          <path d="m107.6,77.12c.36,0,.72.01,1.08,0,.7-.02,1.3.04,1.32.97.01.89-.48,1.08-1.24,1.05-.79-.03-1.58,0-2.37,0-.74,0-1.46.04-1.42-1.07.04-.97.67-.94,1.33-.95.43,0,.86,0,1.29,0Z"/>
          <path d="m110.43,63.97c-.5,0-1,0-1.51,0-.77.02-.97-.42-.95-1.1.02-.62.29-.92.91-.92.86,0,1.72,0,2.58-.01.78-.02,1.44.04,1.38,1.11-.05.98-.7.92-1.35.92-.36,0-.72,0-1.08,0h0Z"/>
          <path d="m121.68,61.95c.5,0,.99,0,1.49,0,.71,0,1.02.35,1.01,1.05-.01.73-.41.98-1.09.97-.85-.01-1.7,0-2.55,0-.66,0-1.27.01-1.3-.95-.04-1.08.62-1.1,1.38-1.09.35,0,.71,0,1.06,0h0Z"/>
          <path d="m113.45,79.14c-.43,0-.86-.01-1.29,0-.67.02-1.08-.18-1.09-.96,0-.73.29-1.06,1.01-1.05.79,0,1.58,0,2.37,0,.76,0,1.44,0,1.41,1.09-.03,1-.69.91-1.34.93-.36,0-.72,0-1.08,0Z"/>
          <path d="m112.99,64.53c.5,0,1,0,1.51,0,.62,0,.9.27.91.91.01.69-.2,1.1-.96,1.09-.79,0-1.58.01-2.37,0-.72,0-1.48.07-1.46-1.04.02-1.15.82-.94,1.51-.98.29-.01.57,0,.86,0h0Z"/>
          <path d="m109.84,84.71c-.35,0-.71.02-1.06,0-.67-.05-1.57.19-1.54-.92.03-1.15.97-.77,1.6-.8.92-.05,1.84-.02,2.76,0,.58,0,1.16.02,1.13.87-.03.82-.59.85-1.18.86-.57.01-1.13,0-1.7,0Z"/>
          <path d="m101.36,61.24c-.9-.45-2.56.64-2.62-.95-.07-1.84,1.71-.98,2.61-.96.92.02,2.69-.92,2.69.87,0,1.88-1.83.47-2.68,1.04Z"/>
          <path d="m124.46,82.77c1.03.66,2.92-.74,2.86,1.14-.06,1.67-1.85.69-2.8.73-.89.04-2.62.79-2.63-.76-.02-1.96,1.91-.19,2.58-1.11Z"/>
          <path d="m117.13,82.38c-.81-.59-2.49.79-2.55-1.01-.06-1.85,1.65-.93,2.47-.91.94.02,2.73-.96,2.78.83.06,1.94-1.82.5-2.7,1.1Z"/>
          <path d="m107.25,61.25c-.86-.51-2.56.7-2.61-.96-.06-1.87,1.72-.95,2.63-.96.88,0,2.55-.88,2.61.77.08,1.98-1.78.58-2.64,1.15Z"/>
          <path d="m117.63,82.77c.95.64,2.7-.64,2.64,1.1-.05,1.56-1.73.79-2.62.78-.89,0-2.6.79-2.6-.78,0-1.92,1.9-.2,2.58-1.1Z"/>
          <path d="m119.68,72.71c-.71-.48-2.53.95-2.56-.92-.03-1.79,1.72-.75,2.66-.99.33-.09.71-.03,1.07,0,.66.05,1.49-.25,1.52.93.03,1.17-.76.97-1.45.99-.36.01-.71,0-1.24,0Z"/>
          <path d="m104.9,82.38c-.79-.59-2.49.78-2.49-1.05,0-1.79,1.65-.9,2.48-.88.92.02,2.67-.91,2.69.87.01,1.89-1.8.46-2.67,1.06Z"/>
          <path d="m111.12,82.27c-.73-.48-2.55.92-2.58-.87-.03-1.93,1.83-.69,2.81-1,.39-.12.85-.02,1.27-.01.6,0,1.12.06,1.16.87.04.92-.49,1.05-1.22,1.01-.42-.02-.85,0-1.44,0Z"/>
          <path d="m113.42,72.71c-.68-.41-2.37.8-2.42-.88-.05-1.83,1.7-.78,2.63-1.05.33-.1.71-.04,1.06,0,.64.07,1.52-.27,1.58.88.06,1.3-.89,1-1.62,1.04-.36.02-.71,0-1.24,0Z"/>
          <path d="m113.35,59.25c.66.46,2.38-.88,2.4.87.02,1.84-1.73.73-2.66,1-.4.12-.86.02-1.29.01-.59-.02-1.14-.03-1.17-.88-.03-.97.54-1.02,1.25-1.01.43.01.86,0,1.46,0Z"/>
          <path d="m123.47,82.38c-.82-.57-2.5.77-2.55-1.01-.05-1.8,1.65-.94,2.48-.92.93.03,2.69-.96,2.74.84.05,1.9-1.79.51-2.66,1.09Z"/>
          <path d="m104.04,84.71c-.43,0-.86,0-1.29,0-.68,0-1.34-.03-1.31-.97.03-.86.67-.77,1.23-.77.93,0,1.86-.01,2.79,0,.62.01,1.37-.13,1.3.91-.05.83-.65.81-1.23.82-.5,0-1,0-1.5,0Z"/>
          <path d="m107.42,72.77c-.79-.31-2.21.51-2.07-1.09.14-1.56,1.53-.85,2.36-.87.74-.02,2.14-.62,2,.99-.14,1.64-1.59.53-2.3.96Z"/>
          <path d="m123.95,79.13c-.68.04-1.12-.13-1.15-.93-.03-.9.44-1.1,1.21-1.09.67,0,1.1.19,1.13.95.03.89-.44,1.14-1.19,1.06Z"/>
          <path d="m103.53,79.13c-.73.08-1.25-.09-1.22-1,.02-.72.35-1.01,1.06-1,.73,0,1.25.12,1.24,1.03-.02.74-.35,1.03-1.07.97Z"/>
        </g>
      </g>
      <circle class="cls-3" cx="114.56" cy="115.82" r="69.26"/>
    </g>
  </g>
</svg>